<svg width="120" height="120" viewBox="0 0 120 120" xmlns="http://www.w3.org/2000/svg">
  <defs>
    <linearGradient id="ring" x1="0%" y1="0%" x2="100%" y2="100%">
      <stop offset="0%" stop-color="#f2d7a6"/>
      <stop offset="100%" stop-color="#8bb6ff"/>
    </linearGradient>
  </defs>
  <rect x="8" y="8" width="104" height="104" rx="26" fill="#101625" stroke="url(#ring)" stroke-width="4"/>
  <path d="M38 30h12v39c0 10-6 17-18 17h-2v-10h2c4 0 6-2 6-7V30z" fill="#f6f8ff"/>
  <path d="M58 30h22c13 0 21 7 21 18 0 8-4 13-11 16l13 22H89L79 66h-9v20H58V30zm12 10v17h9c6 0 10-3 10-8s-4-9-10-9h-9z" fill="#f6f8ff"/>
</svg>
