<svg width="1200" height="675" viewBox="0 0 1200 675" fill="none" xmlns="http://www.w3.org/2000/svg">
  <rect width="1200" height="675" rx="36" fill="#0B1320"/>
  <rect x="36" y="36" width="1128" height="603" rx="28" fill="url(#bg)" stroke="#23324A"/>
  <text x="84" y="118" fill="#F5F7FB" font-family="Arial, Helvetica, sans-serif" font-size="52" font-weight="700">AWS EKS Platform</text>
  <text x="84" y="162" fill="#8FA4C2" font-family="Arial, Helvetica, sans-serif" font-size="24">Terraform stack split, VPC foundations and managed Kubernetes</text>
  <rect x="84" y="220" width="220" height="220" rx="24" fill="#111C2D" stroke="#31455F"/>
  <text x="120" y="285" fill="#F59E0B" font-family="Arial, Helvetica, sans-serif" font-size="26" font-weight="700">bootstrap</text>
  <text x="120" y="324" fill="#C6D2E3" font-family="Arial, Helvetica, sans-serif" font-size="18">Remote state</text>
  <text x="120" y="352" fill="#C6D2E3" font-family="Arial, Helvetica, sans-serif" font-size="18">S3 lockfiles</text>
  <rect x="348" y="220" width="220" height="220" rx="24" fill="#111C2D" stroke="#31455F"/>
  <text x="415" y="285" fill="#5BC0EB" font-family="Arial, Helvetica, sans-serif" font-size="26" font-weight="700">infra</text>
  <text x="389" y="324" fill="#C6D2E3" font-family="Arial, Helvetica, sans-serif" font-size="18">VPC, subnets</text>
  <text x="391" y="352" fill="#C6D2E3" font-family="Arial, Helvetica, sans-serif" font-size="18">EKS, add-ons</text>
  <rect x="612" y="220" width="220" height="220" rx="24" fill="#111C2D" stroke="#31455F"/>
  <text x="657" y="285" fill="#34D399" font-family="Arial, Helvetica, sans-serif" font-size="26" font-weight="700">k8s-app</text>
  <text x="656" y="324" fill="#C6D2E3" font-family="Arial, Helvetica, sans-serif" font-size="18">Helm, ingress</text>
  <text x="656" y="352" fill="#C6D2E3" font-family="Arial, Helvetica, sans-serif" font-size="18">Route53, apps</text>
  <path d="M304 330H348" stroke="#5E7496" stroke-width="6" stroke-linecap="round"/>
  <path d="M568 330H612" stroke="#5E7496" stroke-width="6" stroke-linecap="round"/>
  <rect x="900" y="210" width="180" height="240" rx="90" fill="#101A2A" stroke="#31455F"/>
  <ellipse cx="990" cy="288" rx="54" ry="40" fill="#1B2B41"/>
  <ellipse cx="990" cy="336" rx="54" ry="40" fill="#223750"/>
  <ellipse cx="990" cy="384" rx="54" ry="40" fill="#2B4564"/>
  <text x="942" y="490" fill="#C6D2E3" font-family="Arial, Helvetica, sans-serif" font-size="20">Managed nodes</text>
  <text x="84" y="560" fill="#7E94B2" font-family="Arial, Helvetica, sans-serif" font-size="20">Safer apply and destroy order by separating infrastructure and Kubernetes lifecycle concerns.</text>
  <defs>
    <linearGradient id="bg" x1="84" y1="84" x2="1080" y2="591" gradientUnits="userSpaceOnUse">
      <stop stop-color="#10192A"/>
      <stop offset="1" stop-color="#0E1624"/>
    </linearGradient>
  </defs>
</svg>
