<svg width="1200" height="675" viewBox="0 0 1200 675" fill="none" xmlns="http://www.w3.org/2000/svg">
  <rect width="1200" height="675" rx="36" fill="#0A1220"/>
  <rect x="36" y="36" width="1128" height="603" rx="28" fill="#101A2C" stroke="#243753"/>
  <text x="84" y="116" fill="#F4F7FB" font-family="Arial, Helvetica, sans-serif" font-size="50" font-weight="700">GitHub Actions OIDC Pipeline</text>
  <text x="84" y="158" fill="#8EA5C5" font-family="Arial, Helvetica, sans-serif" font-size="24">Credential-free AWS access, targeted plans and gated applies</text>
  <rect x="84" y="252" width="210" height="130" rx="22" fill="#121E30" stroke="#30455D"/>
  <text x="131" y="326" fill="#E5ECF5" font-family="Arial, Helvetica, sans-serif" font-size="26" font-weight="700">GitHub</text>
  <rect x="346" y="252" width="210" height="130" rx="22" fill="#121E30" stroke="#30455D"/>
  <text x="392" y="326" fill="#60A5FA" font-family="Arial, Helvetica, sans-serif" font-size="26" font-weight="700">OIDC</text>
  <rect x="608" y="252" width="210" height="130" rx="22" fill="#121E30" stroke="#30455D"/>
  <text x="667" y="326" fill="#F59E0B" font-family="Arial, Helvetica, sans-serif" font-size="26" font-weight="700">AWS</text>
  <rect x="870" y="252" width="210" height="130" rx="22" fill="#121E30" stroke="#30455D"/>
  <text x="902" y="314" fill="#34D399" font-family="Arial, Helvetica, sans-serif" font-size="26" font-weight="700">Terraform</text>
  <text x="929" y="346" fill="#C7D4E4" font-family="Arial, Helvetica, sans-serif" font-size="16">plan / apply</text>
  <path d="M294 317H346" stroke="#617796" stroke-width="6" stroke-linecap="round"/>
  <path d="M556 317H608" stroke="#617796" stroke-width="6" stroke-linecap="round"/>
  <path d="M818 317H870" stroke="#617796" stroke-width="6" stroke-linecap="round"/>
  <rect x="144" y="470" width="912" height="82" rx="18" fill="#0D1726" stroke="#2C435D"/>
  <text x="184" y="520" fill="#C7D4E4" font-family="Arial, Helvetica, sans-serif" font-size="24">Change detection  •  stack-aware execution  •  protected environment approval</text>
  <text x="84" y="594" fill="#7D95B3" font-family="Arial, Helvetica, sans-serif" font-size="20">Configured for branch, pull request and environment subjects instead of long-lived static AWS credentials.</text>
</svg>
