<?xml version="1.0" standalone="no"?>
<!DOCTYPE svg PUBLIC "-//W3C//DTD SVG 20010904//EN"
 "http://www.w3.org/TR/2001/REC-SVG-20010904/DTD/svg10.dtd">
<svg version="1.0" xmlns="http://www.w3.org/2000/svg"
 width="96.000000pt" height="96.000000pt" viewBox="0 0 96.000000 96.000000"
 preserveAspectRatio="xMidYMid meet">
<metadata>
Created by potrace 1.11, written by Peter Selinger 2001-2013
</metadata>
<g transform="translate(0.000000,96.000000) scale(0.100000,-0.100000)"
fill="#000000" stroke="none">
<path d="M311 755 c-47 -15 -105 -67 -126 -111 -11 -23 -18 -60 -18 -93 1 -56
0 -56 -40 -76 -50 -24 -79 -70 -79 -127 -1 -56 23 -101 69 -130 38 -23 40 -23
362 -23 300 -1 327 0 363 18 45 22 69 63 70 116 1 59 -37 114 -86 127 -18 4
-21 11 -18 47 8 108 -116 192 -211 143 -26 -14 -28 -14 -42 13 -17 33 -68 79
-102 92 -39 15 -106 17 -142 4z m169 -55 c15 -10 38 -41 51 -67 13 -26 25 -50
27 -52 1 -3 13 6 26 18 29 27 92 37 126 19 41 -22 72 -78 67 -118 -3 -19 -8
-43 -12 -53 -4 -10 -4 -17 1 -16 31 5 59 -5 85 -30 57 -57 28 -153 -51 -169
-28 -6 -530 -9 -627 -3 -67 3 -118 110 -82 170 23 39 60 62 97 63 29 1 30 3
20 27 -18 46 -11 117 17 161 53 84 174 108 255 50z"/>
<path d="M308 686 c-44 -23 -74 -63 -80 -106 -5 -37 24 -32 34 6 9 37 45 72
84 83 15 4 29 12 31 18 8 22 -27 21 -69 -1z"/>
<path d="M350 643 c-29 -11 -60 -47 -60 -70 0 -31 18 -29 30 2 5 14 21 30 35
35 16 6 23 14 19 25 -3 8 -7 15 -8 14 0 0 -8 -3 -16 -6z"/>
<path d="M660 587 c0 -8 11 -19 24 -25 13 -6 27 -20 31 -31 7 -25 35 -28 35
-5 0 20 -54 74 -74 74 -9 0 -16 -6 -16 -13z"/>
<path d="M165 430 c-60 -23 -78 -102 -34 -145 13 -13 33 -25 44 -27 19 -3 20
3 20 85 0 49 -2 90 -5 92 -3 1 -14 -1 -25 -5z"/>
<path d="M755 400 c-31 -12 -48 -37 -47 -72 2 -63 72 -95 119 -54 62 53 3 155
-72 126z m60 -70 c0 -33 -2 -35 -35 -35 -29 0 -36 4 -38 23 -6 40 5 54 40 50
30 -3 33 -6 33 -38z"/>
</g>
</svg>
